<svg width="64" height="64" viewBox="0 0 64 64" fill="none" xmlns="http://www.w3.org/2000/svg">
  <!-- Background circle with gradient -->
  <defs>
    <linearGradient id="mdGradient" x1="0%" y1="0%" x2="100%" y2="100%">
      <stop offset="0%" style="stop-color:#00ff88;stop-opacity:0.2" />
      <stop offset="100%" style="stop-color:#00cc6a;stop-opacity:0.4" />
    </linearGradient>
    <linearGradient id="mdIconGradient" x1="0%" y1="0%" x2="100%" y2="100%">
      <stop offset="0%" style="stop-color:#00ff88" />
      <stop offset="100%" style="stop-color:#00cc6a" />
    </linearGradient>
  </defs>
  
  <!-- Background -->
  <circle cx="32" cy="32" r="30" fill="url(#mdGradient)" stroke="url(#mdIconGradient)" stroke-width="2"/>
  
  <!-- Database/Data icon -->
  <g transform="translate(16, 12)">
    <!-- Database cylinders -->
    <g fill="url(#mdIconGradient)" opacity="0.8">
      <!-- Top database -->
      <ellipse cx="16" cy="6" rx="12" ry="4"/>
      <rect x="4" y="6" width="24" height="8" fill="url(#mdIconGradient)"/>
      <ellipse cx="16" cy="14" rx="12" ry="4"/>
      
      <!-- Middle database -->
      <ellipse cx="16" cy="18" rx="12" ry="4"/>
      <rect x="4" y="18" width="24" height="8" fill="url(#mdIconGradient)"/>
      <ellipse cx="16" cy="26" rx="12" ry="4"/>
      
      <!-- Bottom database -->
      <ellipse cx="16" cy="30" rx="12" ry="4"/>
      <rect x="4" y="30" width="24" height="8" fill="url(#mdIconGradient)"/>
      <ellipse cx="16" cy="38" rx="12" ry="4"/>
    </g>
    
    <!-- Data flow lines -->
    <g stroke="#ffffff" stroke-width="2" fill="none" opacity="0.6">
      <!-- Connecting lines between databases -->
      <line x1="4" y1="14" x2="4" y2="18"/>
      <line x1="28" y1="14" x2="28" y2="18"/>
      <line x1="4" y1="26" x2="4" y2="30"/>
      <line x1="28" y1="26" x2="28" y2="30"/>
    </g>
    
    <!-- Data points/records -->
    <g fill="#ffffff" opacity="0.7">
      <!-- Top database records -->
      <rect x="8" y="8" width="3" height="1" rx="0.5"/>
      <rect x="12" y="8" width="8" height="1" rx="0.5"/>
      <rect x="22" y="8" width="4" height="1" rx="0.5"/>
      
      <rect x="8" y="10" width="5" height="1" rx="0.5"/>
      <rect x="14" y="10" width="6" height="1" rx="0.5"/>
      <rect x="22" y="10" width="4" height="1" rx="0.5"/>
      
      <!-- Middle database records -->
      <rect x="8" y="20" width="4" height="1" rx="0.5"/>
      <rect x="13" y="20" width="7" height="1" rx="0.5"/>
      <rect x="22" y="20" width="4" height="1" rx="0.5"/>
      
      <rect x="8" y="22" width="6" height="1" rx="0.5"/>
      <rect x="15" y="22" width="5" height="1" rx="0.5"/>
      <rect x="22" y="22" width="4" height="1" rx="0.5"/>
      
      <!-- Bottom database records -->
      <rect x="8" y="32" width="3" height="1" rx="0.5"/>
      <rect x="12" y="32" width="9" height="1" rx="0.5"/>
      <rect x="23" y="32" width="3" height="1" rx="0.5"/>
      
      <rect x="8" y="34" width="7" height="1" rx="0.5"/>
      <rect x="16" y="34" width="4" height="1" rx="0.5"/>
      <rect x="22" y="34" width="4" height="1" rx="0.5"/>
    </g>
  </g>
  
  <!-- Data flow animation -->
  <g stroke="url(#mdIconGradient)" stroke-width="2" fill="none" opacity="0.4">
    <path d="M 10 32 Q 20 28 30 32 Q 40 36 50 32">
      <animate attributeName="stroke-dasharray" values="0,100;50,50;100,0" dur="3s" repeatCount="indefinite"/>
      <animate attributeName="opacity" values="0.4;0.8;0.4" dur="3s" repeatCount="indefinite"/>
    </path>
  </g>
  
  <!-- Animated pulse effect -->
  <circle cx="32" cy="32" r="30" fill="none" stroke="url(#mdIconGradient)" stroke-width="1" opacity="0.3">
    <animate attributeName="r" values="30;35;30" dur="2.5s" repeatCount="indefinite"/>
    <animate attributeName="opacity" values="0.3;0.1;0.3" dur="2.5s" repeatCount="indefinite"/>
  </circle>
</svg>