<svg width="300" height="200" viewBox="0 0 300 200" xmlns="http://www.w3.org/2000/svg">
  <!-- Half-size Breadboard -->
  <defs>
    <linearGradient id="breadboardGradient" x1="0%" y1="0%" x2="100%" y2="100%">
      <stop offset="0%" style="stop-color:#f8f9fa;stop-opacity:1" />
      <stop offset="100%" style="stop-color:#e9ecef;stop-opacity:1" />
    </linearGradient>
    <linearGradient id="holeGradient" x1="0%" y1="0%" x2="100%" y2="100%">
      <stop offset="0%" style="stop-color:#6c757d;stop-opacity:1" />
      <stop offset="100%" style="stop-color:#495057;stop-opacity:1" />
    </linearGradient>
  </defs>
  
  <!-- Main breadboard body -->
  <rect x="10" y="20" width="280" height="160" rx="5" ry="5" fill="url(#breadboardGradient)" stroke="#dee2e6" stroke-width="2"/>
  
  <!-- Power rails (top) -->
  <rect x="20" y="30" width="260" height="15" fill="#fff3cd" stroke="#ffeaa7" stroke-width="0.5"/>
  
  <!-- Power rail labels -->
  <text x="25" y="40" font-family="Arial, sans-serif" font-size="8" fill="#e74c3c" font-weight="bold">+</text>
  <text x="275" y="40" font-family="Arial, sans-serif" font-size="8" fill="#e74c3c" font-weight="bold">+</text>
  
  <!-- Ground rails (top) -->
  <rect x="20" y="50" width="260" height="15" fill="#d1ecf1" stroke="#bee5eb" stroke-width="0.5"/>
  <text x="25" y="60" font-family="Arial, sans-serif" font-size="8" fill="#17a2b8" font-weight="bold">-</text>
  <text x="275" y="60" font-family="Arial, sans-serif" font-size="8" fill="#17a2b8" font-weight="bold">-</text>
  
  <!-- Center divider -->
  <rect x="20" y="95" width="260" height="10" fill="#6c757d" stroke="#495057" stroke-width="0.5"/>
  
  <!-- Main terminal strips -->
  <rect x="20" y="70" width="260" height="20" fill="#f8f9fa" stroke="#dee2e6" stroke-width="0.5"/>
  <rect x="20" y="110" width="260" height="20" fill="#f8f9fa" stroke="#dee2e6" stroke-width="0.5"/>
  
  <!-- Power rails (bottom) -->
  <rect x="20" y="135" width="260" height="15" fill="#fff3cd" stroke="#ffeaa7" stroke-width="0.5"/>
  <text x="25" y="145" font-family="Arial, sans-serif" font-size="8" fill="#e74c3c" font-weight="bold">+</text>
  <text x="275" y="145" font-family="Arial, sans-serif" font-size="8" fill="#e74c3c" font-weight="bold">+</text>
  
  <!-- Ground rails (bottom) -->
  <rect x="20" y="155" width="260" height="15" fill="#d1ecf1" stroke="#bee5eb" stroke-width="0.5"/>
  <text x="25" y="165" font-family="Arial, sans-serif" font-size="8" fill="#17a2b8" font-weight="bold">-</text>
  <text x="275" y="165" font-family="Arial, sans-serif" font-size="8" fill="#17a2b8" font-weight="bold">-</text>
  
  <!-- Tie point holes - Power rails (top) -->
  <g fill="url(#holeGradient)">
    <!-- Top positive rail -->
    <circle cx="30" cy="37.5" r="1.5"/>
    <circle cx="40" cy="37.5" r="1.5"/>
    <circle cx="50" cy="37.5" r="1.5"/>
    <circle cx="60" cy="37.5" r="1.5"/>
    <circle cx="70" cy="37.5" r="1.5"/>
    <circle cx="80" cy="37.5" r="1.5"/>
    <circle cx="90" cy="37.5" r="1.5"/>
    <circle cx="100" cy="37.5" r="1.5"/>
    <circle cx="110" cy="37.5" r="1.5"/>
    <circle cx="120" cy="37.5" r="1.5"/>
    <circle cx="130" cy="37.5" r="1.5"/>
    <circle cx="140" cy="37.5" r="1.5"/>
    <circle cx="150" cy="37.5" r="1.5"/>
    <circle cx="160" cy="37.5" r="1.5"/>
    <circle cx="170" cy="37.5" r="1.5"/>
    <circle cx="180" cy="37.5" r="1.5"/>
    <circle cx="190" cy="37.5" r="1.5"/>
    <circle cx="200" cy="37.5" r="1.5"/>
    <circle cx="210" cy="37.5" r="1.5"/>
    <circle cx="220" cy="37.5" r="1.5"/>
    <circle cx="230" cy="37.5" r="1.5"/>
    <circle cx="240" cy="37.5" r="1.5"/>
    <circle cx="250" cy="37.5" r="1.5"/>
    <circle cx="260" cy="37.5" r="1.5"/>
    <circle cx="270" cy="37.5" r="1.5"/>
    
    <!-- Top negative rail -->
    <circle cx="30" cy="57.5" r="1.5"/>
    <circle cx="40" cy="57.5" r="1.5"/>
    <circle cx="50" cy="57.5" r="1.5"/>
    <circle cx="60" cy="57.5" r="1.5"/>
    <circle cx="70" cy="57.5" r="1.5"/>
    <circle cx="80" cy="57.5" r="1.5"/>
    <circle cx="90" cy="57.5" r="1.5"/>
    <circle cx="100" cy="57.5" r="1.5"/>
    <circle cx="110" cy="57.5" r="1.5"/>
    <circle cx="120" cy="57.5" r="1.5"/>
    <circle cx="130" cy="57.5" r="1.5"/>
    <circle cx="140" cy="57.5" r="1.5"/>
    <circle cx="150" cy="57.5" r="1.5"/>
    <circle cx="160" cy="57.5" r="1.5"/>
    <circle cx="170" cy="57.5" r="1.5"/>
    <circle cx="180" cy="57.5" r="1.5"/>
    <circle cx="190" cy="57.5" r="1.5"/>
    <circle cx="200" cy="57.5" r="1.5"/>
    <circle cx="210" cy="57.5" r="1.5"/>
    <circle cx="220" cy="57.5" r="1.5"/>
    <circle cx="230" cy="57.5" r="1.5"/>
    <circle cx="240" cy="57.5" r="1.5"/>
    <circle cx="250" cy="57.5" r="1.5"/>
    <circle cx="260" cy="57.5" r="1.5"/>
    <circle cx="270" cy="57.5" r="1.5"/>
  </g>
  
  <!-- Terminal strip holes (top section) -->
  <g fill="url(#holeGradient)">
    <!-- Row A -->
    <circle cx="30" cy="75" r="1.5"/>
    <circle cx="40" cy="75" r="1.5"/>
    <circle cx="50" cy="75" r="1.5"/>
    <circle cx="60" cy="75" r="1.5"/>
    <circle cx="70" cy="75" r="1.5"/>
    <circle cx="80" cy="75" r="1.5"/>
    <circle cx="90" cy="75" r="1.5"/>
    <circle cx="100" cy="75" r="1.5"/>
    <circle cx="110" cy="75" r="1.5"/>
    <circle cx="120" cy="75" r="1.5"/>
    <circle cx="130" cy="75" r="1.5"/>
    <circle cx="140" cy="75" r="1.5"/>
    <circle cx="160" cy="75" r="1.5"/>
    <circle cx="170" cy="75" r="1.5"/>
    <circle cx="180" cy="75" r="1.5"/>
    <circle cx="190" cy="75" r="1.5"/>
    <circle cx="200" cy="75" r="1.5"/>
    <circle cx="210" cy="75" r="1.5"/>
    <circle cx="220" cy="75" r="1.5"/>
    <circle cx="230" cy="75" r="1.5"/>
    <circle cx="240" cy="75" r="1.5"/>
    <circle cx="250" cy="75" r="1.5"/>
    <circle cx="260" cy="75" r="1.5"/>
    <circle cx="270" cy="75" r="1.5"/>
    
    <!-- Row B -->
    <circle cx="30" cy="85" r="1.5"/>
    <circle cx="40" cy="85" r="1.5"/>
    <circle cx="50" cy="85" r="1.5"/>
    <circle cx="60" cy="85" r="1.5"/>
    <circle cx="70" cy="85" r="1.5"/>
    <circle cx="80" cy="85" r="1.5"/>
    <circle cx="90" cy="85" r="1.5"/>
    <circle cx="100" cy="85" r="1.5"/>
    <circle cx="110" cy="85" r="1.5"/>
    <circle cx="120" cy="85" r="1.5"/>
    <circle cx="130" cy="85" r="1.5"/>
    <circle cx="140" cy="85" r="1.5"/>
    <circle cx="160" cy="85" r="1.5"/>
    <circle cx="170" cy="85" r="1.5"/>
    <circle cx="180" cy="85" r="1.5"/>
    <circle cx="190" cy="85" r="1.5"/>
    <circle cx="200" cy="85" r="1.5"/>
    <circle cx="210" cy="85" r="1.5"/>
    <circle cx="220" cy="85" r="1.5"/>
    <circle cx="230" cy="85" r="1.5"/>
    <circle cx="240" cy="85" r="1.5"/>
    <circle cx="250" cy="85" r="1.5"/>
    <circle cx="260" cy="85" r="1.5"/>
    <circle cx="270" cy="85" r="1.5"/>
  </g>
  
  <!-- Terminal strip holes (bottom section) -->
  <g fill="url(#holeGradient)">
    <!-- Row C -->
    <circle cx="30" cy="115" r="1.5"/>
    <circle cx="40" cy="115" r="1.5"/>
    <circle cx="50" cy="115" r="1.5"/>
    <circle cx="60" cy="115" r="1.5"/>
    <circle cx="70" cy="115" r="1.5"/>
    <circle cx="80" cy="115" r="1.5"/>
    <circle cx="90" cy="115" r="1.5"/>
    <circle cx="100" cy="115" r="1.5"/>
    <circle cx="110" cy="115" r="1.5"/>
    <circle cx="120" cy="115" r="1.5"/>
    <circle cx="130" cy="115" r="1.5"/>
    <circle cx="140" cy="115" r="1.5"/>
    <circle cx="160" cy="115" r="1.5"/>
    <circle cx="170" cy="115" r="1.5"/>
    <circle cx="180" cy="115" r="1.5"/>
    <circle cx="190" cy="115" r="1.5"/>
    <circle cx="200" cy="115" r="1.5"/>
    <circle cx="210" cy="115" r="1.5"/>
    <circle cx="220" cy="115" r="1.5"/>
    <circle cx="230" cy="115" r="1.5"/>
    <circle cx="240" cy="115" r="1.5"/>
    <circle cx="250" cy="115" r="1.5"/>
    <circle cx="260" cy="115" r="1.5"/>
    <circle cx="270" cy="115" r="1.5"/>
    
    <!-- Row D -->
    <circle cx="30" cy="125" r="1.5"/>
    <circle cx="40" cy="125" r="1.5"/>
    <circle cx="50" cy="125" r="1.5"/>
    <circle cx="60" cy="125" r="1.5"/>
    <circle cx="70" cy="125" r="1.5"/>
    <circle cx="80" cy="125" r="1.5"/>
    <circle cx="90" cy="125" r="1.5"/>
    <circle cx="100" cy="125" r="1.5"/>
    <circle cx="110" cy="125" r="1.5"/>
    <circle cx="120" cy="125" r="1.5"/>
    <circle cx="130" cy="125" r="1.5"/>
    <circle cx="140" cy="125" r="1.5"/>
    <circle cx="160" cy="125" r="1.5"/>
    <circle cx="170" cy="125" r="1.5"/>
    <circle cx="180" cy="125" r="1.5"/>
    <circle cx="190" cy="125" r="1.5"/>
    <circle cx="200" cy="125" r="1.5"/>
    <circle cx="210" cy="125" r="1.5"/>
    <circle cx="220" cy="125" r="1.5"/>
    <circle cx="230" cy="125" r="1.5"/>
    <circle cx="240" cy="125" r="1.5"/>
    <circle cx="250" cy="125" r="1.5"/>
    <circle cx="260" cy="125" r="1.5"/>
    <circle cx="270" cy="125" r="1.5"/>
  </g>
  
  <!-- Power rails (bottom) holes -->
  <g fill="url(#holeGradient)">
    <!-- Bottom positive rail -->
    <circle cx="30" cy="142.5" r="1.5"/>
    <circle cx="40" cy="142.5" r="1.5"/>
    <circle cx="50" cy="142.5" r="1.5"/>
    <circle cx="60" cy="142.5" r="1.5"/>
    <circle cx="70" cy="142.5" r="1.5"/>
    <circle cx="80" cy="142.5" r="1.5"/>
    <circle cx="90" cy="142.5" r="1.5"/>
    <circle cx="100" cy="142.5" r="1.5"/>
    <circle cx="110" cy="142.5" r="1.5"/>
    <circle cx="120" cy="142.5" r="1.5"/>
    <circle cx="130" cy="142.5" r="1.5"/>
    <circle cx="140" cy="142.5" r="1.5"/>
    <circle cx="150" cy="142.5" r="1.5"/>
    <circle cx="160" cy="142.5" r="1.5"/>
    <circle cx="170" cy="142.5" r="1.5"/>
    <circle cx="180" cy="142.5" r="1.5"/>
    <circle cx="190" cy="142.5" r="1.5"/>
    <circle cx="200" cy="142.5" r="1.5"/>
    <circle cx="210" cy="142.5" r="1.5"/>
    <circle cx="220" cy="142.5" r="1.5"/>
    <circle cx="230" cy="142.5" r="1.5"/>
    <circle cx="240" cy="142.5" r="1.5"/>
    <circle cx="250" cy="142.5" r="1.5"/>
    <circle cx="260" cy="142.5" r="1.5"/>
    <circle cx="270" cy="142.5" r="1.5"/>
    
    <!-- Bottom negative rail -->
    <circle cx="30" cy="162.5" r="1.5"/>
    <circle cx="40" cy="162.5" r="1.5"/>
    <circle cx="50" cy="162.5" r="1.5"/>
    <circle cx="60" cy="162.5" r="1.5"/>
    <circle cx="70" cy="162.5" r="1.5"/>
    <circle cx="80" cy="162.5" r="1.5"/>
    <circle cx="90" cy="162.5" r="1.5"/>
    <circle cx="100" cy="162.5" r="1.5"/>
    <circle cx="110" cy="162.5" r="1.5"/>
    <circle cx="120" cy="162.5" r="1.5"/>
    <circle cx="130" cy="162.5" r="1.5"/>
    <circle cx="140" cy="162.5" r="1.5"/>
    <circle cx="150" cy="162.5" r="1.5"/>
    <circle cx="160" cy="162.5" r="1.5"/>
    <circle cx="170" cy="162.5" r="1.5"/>
    <circle cx="180" cy="162.5" r="1.5"/>
    <circle cx="190" cy="162.5" r="1.5"/>
    <circle cx="200" cy="162.5" r="1.5"/>
    <circle cx="210" cy="162.5" r="1.5"/>
    <circle cx="220" cy="162.5" r="1.5"/>
    <circle cx="230" cy="162.5" r="1.5"/>
    <circle cx="240" cy="162.5" r="1.5"/>
    <circle cx="250" cy="162.5" r="1.5"/>
    <circle cx="260" cy="162.5" r="1.5"/>
    <circle cx="270" cy="162.5" r="1.5"/>
  </g>
  
  <!-- Column numbers -->
  <g font-family="Arial, sans-serif" font-size="6" fill="#6c757d">
    <text x="30" y="15" text-anchor="middle">1</text>
    <text x="50" y="15" text-anchor="middle">5</text>
    <text x="70" y="15" text-anchor="middle">10</text>
    <text x="90" y="15" text-anchor="middle">15</text>
    <text x="110" y="15" text-anchor="middle">20</text>
    <text x="130" y="15" text-anchor="middle">25</text>
    <text x="160" y="15" text-anchor="middle">30</text>
    <text x="180" y="15" text-anchor="middle">35</text>
    <text x="200" y="15" text-anchor="middle">40</text>
    <text x="220" y="15" text-anchor="middle">45</text>
    <text x="240" y="15" text-anchor="middle">50</text>
    <text x="260" y="15" text-anchor="middle">55</text>
  </g>
  
  <!-- Row letters -->
  <g font-family="Arial, sans-serif" font-size="6" fill="#6c757d">
    <text x="295" y="78">A</text>
    <text x="295" y="88">B</text>
    <text x="295" y="118">C</text>
    <text x="295" y="128">D</text>
  </g>
  
  <!-- Brand label -->
  <text x="150" y="195" font-family="Arial, sans-serif" font-size="8" fill="#6c757d" text-anchor="middle" font-weight="bold">BREADBOARD</text>
</svg>